<svg xmlns="http://www.w3.org/2000/svg" width="1570" height="1615" viewBox="0 0 1570 1615" font-family="-apple-system,BlinkMacSystemFont,Segoe UI,Roboto,Helvetica,Arial,sans-serif">
<rect width="100%" height="100%" fill="#FFFFFF"/>
<defs>
<marker id="arrow-happy" viewBox="0 0 10 10" refX="9" refY="5" markerWidth="7" markerHeight="7" orient="auto-start-reverse"><path d="M 0 0 L 10 5 L 0 10 z" fill="#2E7D32"/></marker>
<marker id="arrow-error" viewBox="0 0 10 10" refX="9" refY="5" markerWidth="7" markerHeight="7" orient="auto-start-reverse"><path d="M 0 0 L 10 5 L 0 10 z" fill="#C62828"/></marker>
<marker id="arrow-edge" viewBox="0 0 10 10" refX="9" refY="5" markerWidth="7" markerHeight="7" orient="auto-start-reverse"><path d="M 0 0 L 10 5 L 0 10 z" fill="#B8860B"/></marker>
<marker id="arrow-neutral" viewBox="0 0 10 10" refX="9" refY="5" markerWidth="7" markerHeight="7" orient="auto-start-reverse"><path d="M 0 0 L 10 5 L 0 10 z" fill="#71717A"/></marker>
<marker id="arrow-added" viewBox="0 0 10 10" refX="9" refY="5" markerWidth="7" markerHeight="7" orient="auto-start-reverse"><path d="M 0 0 L 10 5 L 0 10 z" fill="#15803D"/></marker>
<marker id="arrow-removed" viewBox="0 0 10 10" refX="9" refY="5" markerWidth="7" markerHeight="7" orient="auto-start-reverse"><path d="M 0 0 L 10 5 L 0 10 z" fill="#B91C1C"/></marker>
<marker id="arrow-changed" viewBox="0 0 10 10" refX="9" refY="5" markerWidth="7" markerHeight="7" orient="auto-start-reverse"><path d="M 0 0 L 10 5 L 0 10 z" fill="#B45309"/></marker>
<marker id="arrow-unchanged" viewBox="0 0 10 10" refX="9" refY="5" markerWidth="7" markerHeight="7" orient="auto-start-reverse"><path d="M 0 0 L 10 5 L 0 10 z" fill="#A1A1AA"/></marker>
<marker id="arrow-back" viewBox="0 0 10 10" refX="9" refY="5" markerWidth="7" markerHeight="7" orient="auto-start-reverse"><path d="M 0 0 L 10 5 L 0 10 z" fill="#71717A"/></marker>
</defs>
<text x="20" y="30" font-size="18" font-weight="700" fill="#18181B">Login (Supabase OAuth + magic link)</text>
<rect x="40" y="74" width="256" height="1475" fill="#F8FAFC" stroke="#CBD5E1" rx="4"/>
<text x="52" y="96" font-size="13" font-weight="600" fill="#334155">User</text>
<rect x="296" y="74" width="510" height="1475" fill="#F1F5F9" stroke="#CBD5E1" rx="4"/>
<text x="308" y="96" font-size="13" font-weight="600" fill="#334155">App UI</text>
<rect x="806" y="74" width="417" height="1475" fill="#F8FAFC" stroke="#CBD5E1" rx="4"/>
<text x="818" y="96" font-size="13" font-weight="600" fill="#334155">Backend</text>
<rect x="1223" y="74" width="267" height="1475" fill="#F1F5F9" stroke="#CBD5E1" rx="4"/>
<text x="1235" y="96" font-size="13" font-weight="600" fill="#334155">External / data</text>
<path d="M 167.5 158 V 174 H 1014.5 V 212" fill="none" stroke="#2E7D32" stroke-width="2" marker-end="url(#arrow-happy)"/><rect x="555" y="163" width="72" height="15" fill="#FFFFFF" opacity="0.92" rx="2"/><text x="591" y="174" font-size="10.5" fill="#3F3F46" text-anchor="middle">route render</text>
<path d="M 1014.5 409 V 425 H 551 V 463" fill="none" stroke="#B8860B" stroke-width="1.5" stroke-dasharray="6 4" marker-end="url(#arrow-edge)"/><rect x="713.75" y="414" width="138" height="15" fill="#FFFFFF" opacity="0.92" rx="2"/><text x="782.75" y="425" font-size="10.5" fill="#3F3F46" text-anchor="middle">redirect /login [!user]</text>
<path d="M 1014.5 409 V 853 H 419 V 1319" fill="none" stroke="#2E7D32" stroke-width="2" marker-end="url(#arrow-happy)"/><rect x="656.75" y="842" width="120" height="15" fill="#FFFFFF" opacity="0.92" rx="2"/><text x="716.75" y="853" font-size="10.5" fill="#3F3F46" text-anchor="middle">authenticated [user]</text>
<path d="M 551 583 V 607 H 437 V 653" fill="none" stroke="#2E7D32" stroke-width="2" marker-end="url(#arrow-happy)"/><rect x="464" y="596" width="60" height="15" fill="#FFFFFF" opacity="0.92" rx="2"/><text x="494" y="607" font-size="10.5" fill="#3F3F46" text-anchor="middle">tap Google</text>
<path d="M 437 709 V 733 H 1356.5 V 779" fill="none" stroke="#2E7D32" stroke-width="2" marker-end="url(#arrow-happy)"/><rect x="851.75" y="722" width="90" height="15" fill="#FFFFFF" opacity="0.92" rx="2"/><text x="896.75" y="733" font-size="10.5" fill="#3F3F46" text-anchor="middle">signInWithOAuth</text>
<path d="M 1356.5 883 V 954 H 1014 V 1047" fill="none" stroke="#2E7D32" stroke-width="2" marker-end="url(#arrow-happy)"/><rect x="1155.25" y="943" width="60" height="15" fill="#FFFFFF" opacity="0.92" rx="2"/><text x="1185.25" y="954" font-size="10.5" fill="#3F3F46" text-anchor="middle">redirectTo</text>
<path d="M 551 583 V 599 H 669.5 V 637" fill="none" stroke="#B8860B" stroke-width="1.5" stroke-dasharray="6 4" marker-end="url(#arrow-edge)"/><rect x="574.25" y="588" width="72" height="15" fill="#FFFFFF" opacity="0.92" rx="2"/><text x="610.25" y="599" font-size="10.5" fill="#3F3F46" text-anchor="middle">or use email</text>
<path d="M 669.5 725 V 745 H 1014.5 V 787" fill="none" stroke="#B8860B" stroke-width="1.5" stroke-dasharray="6 4" marker-end="url(#arrow-edge)"/><rect x="824" y="752" width="36" height="15" fill="#FFFFFF" opacity="0.92" rx="2"/><text x="842" y="763" font-size="10.5" fill="#3F3F46" text-anchor="middle">submit</text>
<path d="M 1014.5 875 V 895 H 659 V 937" fill="none" stroke="#B8860B" stroke-width="1.5" stroke-dasharray="6 4" marker-end="url(#arrow-edge)"/><rect x="830.75" y="884" width="12" height="15" fill="#FFFFFF" opacity="0.92" rx="2"/><text x="836.75" y="895" font-size="10.5" fill="#3F3F46" text-anchor="middle">ok</text>
<path d="M 1014.5 875 V 896.5 H 426 V 940" fill="none" stroke="#C62828" stroke-width="1.5" stroke-dasharray="6 4" marker-end="url(#arrow-error)"/><rect x="681.25" y="885.5" width="78" height="15" fill="#FFFFFF" opacity="0.92" rx="2"/><text x="720.25" y="896.5" font-size="10.5" fill="#3F3F46" text-anchor="middle">error.message</text>
<path d="M 511 965 H 707 V 523 H 667" fill="none" stroke="#52525B" stroke-width="1.5" marker-end="url(#arrow-neutral)"/><rect x="680" y="733" width="54" height="15" fill="#FFFFFF" opacity="0.92" rx="2"/><text x="707" y="744" font-size="10.5" fill="#3F3F46" text-anchor="middle">try again</text>
<path d="M 659 993 V 1009 H 1014 V 1047" fill="none" stroke="#B8860B" stroke-width="1.5" stroke-dasharray="6 4" marker-end="url(#arrow-edge)"/><rect x="755.5" y="998" width="162" height="15" fill="#FFFFFF" opacity="0.92" rx="2"/><text x="836.5" y="1009" font-size="10.5" fill="#3F3F46" text-anchor="middle">link in the email is opened</text>
<path d="M 1014 1103 V 1119 H 1356.5 V 1157" fill="none" stroke="#2E7D32" stroke-width="2" marker-end="url(#arrow-happy)"/><rect x="1152.25" y="1108" width="66" height="15" fill="#FFFFFF" opacity="0.92" rx="2"/><text x="1185.25" y="1119" font-size="10.5" fill="#3F3F46" text-anchor="middle">code [code]</text>
<path d="M 1356.5 1227 V 1262 H 419 V 1319" fill="none" stroke="#2E7D32" stroke-width="2" marker-end="url(#arrow-happy)"/><rect x="836.75" y="1251" width="102" height="15" fill="#FFFFFF" opacity="0.92" rx="2"/><text x="887.75" y="1262" font-size="10.5" fill="#3F3F46" text-anchor="middle">no error [!error]</text>
<path d="M 1014 1103 V 1181 H 669 V 1281" fill="none" stroke="#C62828" stroke-width="1.5" stroke-dasharray="6 4" marker-end="url(#arrow-error)"/><rect x="811.5" y="1170" width="60" height="15" fill="#FFFFFF" opacity="0.92" rx="2"/><text x="841.5" y="1181" font-size="10.5" fill="#3F3F46" text-anchor="middle">auth error</text>
<path d="M 1356.5 1227 V 1243 H 669 V 1281" fill="none" stroke="#C62828" stroke-width="1.5" stroke-dasharray="6 4" marker-end="url(#arrow-error)"/><rect x="970.75" y="1232" width="84" height="15" fill="#FFFFFF" opacity="0.92" rx="2"/><text x="1012.75" y="1243" font-size="10.5" fill="#3F3F46" text-anchor="middle">exchange error</text>
<path d="M 778 1349 H 818 V 523 H 667" fill="none" stroke="#52525B" stroke-width="1.5" marker-end="url(#arrow-neutral)"/><rect x="773" y="925" width="90" height="15" fill="#FFFFFF" opacity="0.92" rx="2"/><text x="818" y="936" font-size="10.5" fill="#3F3F46" text-anchor="middle">stays on /login</text>
<path d="M 419 1379 V 1414 H 168 V 1471" fill="none" stroke="#2E7D32" stroke-width="2" marker-end="url(#arrow-happy)"/><rect x="248.5" y="1403" width="90" height="15" fill="#FFFFFF" opacity="0.92" rx="2"/><text x="293.5" y="1414" font-size="10.5" fill="#3F3F46" text-anchor="middle">dashboard ready</text>
<g><title>components/sidebar.tsx:26</title><ellipse cx="167.5" cy="133" rx="91.5" ry="25" fill="#E7F5EA" stroke="#2E7D32" stroke-width="2"/><text x="167.5" y="137" font-size="12" font-weight="600" fill="#14532D" text-anchor="middle">Opens a protected route</text></g>
<g><title>app/(app)/layout.tsx:10</title><polygon points="1014.5,212 1195,310.5 1014.5,409 834,310.5" fill="#E7F5EA" stroke="#2E7D32" stroke-width="2"/><text x="1014.5" y="282.5" font-size="12" font-weight="600" fill="#14532D" text-anchor="middle">Signed in?</text><text x="1014.5" y="298.5" font-size="10.5" font-weight="400" fill="#52525B" text-anchor="middle">Every route in the (app)</text><text x="1014.5" y="314.5" font-size="10.5" font-weight="400" fill="#52525B" text-anchor="middle">group redirects to</text><text x="1014.5" y="330.5" font-size="10.5" font-weight="400" fill="#52525B" text-anchor="middle">/login when there is no</text><text x="1014.5" y="346.5" font-size="10.5" font-weight="400" fill="#52525B" text-anchor="middle">Supabase user.</text></g>
<g><title>app/login/page.tsx:44</title><rect x="435" y="463" width="232" height="120" rx="8" fill="#E7F5EA" stroke="#2E7D32" stroke-width="2"/><text x="551" y="487" font-size="12" font-weight="600" fill="#14532D" text-anchor="middle">Login page</text><text x="551" y="503" font-size="10.5" font-weight="400" fill="#52525B" text-anchor="middle">/login</text><text x="551" y="519" font-size="10.5" font-weight="400" fill="#52525B" text-anchor="middle">1 tap</text><text x="551" y="535" font-size="10.5" font-weight="400" fill="#52525B" text-anchor="middle">Google sign-in and email magic</text><text x="551" y="551" font-size="10.5" font-weight="400" fill="#52525B" text-anchor="middle">link are offered on the same</text><text x="551" y="567" font-size="10.5" font-weight="400" fill="#52525B" text-anchor="middle">screen.</text></g>
<g><title>app/login/page.tsx:53</title><rect x="342" y="653" width="190" height="56" rx="0" fill="#E7F5EA" stroke="#2E7D32" stroke-width="2"/><text x="437" y="677" font-size="12" font-weight="600" fill="#14532D" text-anchor="middle">Tap: sign in with Google</text><text x="437" y="693" font-size="10.5" font-weight="400" fill="#52525B" text-anchor="middle">1 tap</text></g>
<g><title>app/login/page.tsx:20</title><polygon points="1251,779 1462,779 1462,869 1356.5,883 1251,869" fill="#E7F5EA" stroke="#2E7D32" stroke-width="2"/><text x="1356.5" y="803" font-size="12" font-weight="600" fill="#14532D" text-anchor="middle">Supabase Google OAuth</text><text x="1356.5" y="819" font-size="10.5" font-weight="400" fill="#52525B" text-anchor="middle">wait: user returns from the</text><text x="1356.5" y="835" font-size="10.5" font-weight="400" fill="#52525B" text-anchor="middle">provider screen to</text><text x="1356.5" y="851" font-size="10.5" font-weight="400" fill="#52525B" text-anchor="middle">/auth/callback</text><text x="1356.5" y="867" font-size="10.5" font-weight="400" fill="#B91C1C" text-anchor="middle">! leaves the app</text></g>
<g><title>app/login/page.tsx:82</title><rect x="578" y="637" width="183" height="88" rx="0" fill="#FFF6E0" stroke="#B8860B" stroke-width="2"/><text x="669.5" y="661" font-size="12" font-weight="600" fill="#78350F" text-anchor="middle">Tap: email me a sign-in</text><text x="669.5" y="677" font-size="10.5" font-weight="400" fill="#52525B" text-anchor="middle">link</text><text x="669.5" y="693" font-size="10.5" font-weight="400" fill="#52525B" text-anchor="middle">1 tap</text><text x="669.5" y="709" font-size="10.5" font-weight="400" fill="#52525B" text-anchor="middle">1 required fields</text></g>
<g><title>app/login/page.tsx:35</title><polygon points="925,787 1120,787 1104,875 909,875" fill="#FFF6E0" stroke="#B8860B" stroke-width="2"/><text x="1014.5" y="811" font-size="12" font-weight="600" fill="#78350F" text-anchor="middle">Supabase signInWithOtp</text><text x="1014.5" y="827" font-size="10.5" font-weight="400" fill="#52525B" text-anchor="middle">wait: user returns from the</text><text x="1014.5" y="843" font-size="10.5" font-weight="400" fill="#52525B" text-anchor="middle">provider screen to</text><text x="1014.5" y="859" font-size="10.5" font-weight="400" fill="#52525B" text-anchor="middle">/auth/callback</text></g>
<g><title>app/login/page.tsx:68</title><rect x="557" y="937" width="204" height="56" rx="20" fill="#FFF6E0" stroke="#B8860B" stroke-width="2" stroke-dasharray="7 4"/><text x="659" y="961" font-size="12" font-weight="600" fill="#78350F" text-anchor="middle">Sign-in link sent (waiting</text><text x="659" y="977" font-size="10.5" font-weight="400" fill="#52525B" text-anchor="middle">for email)</text></g>
<g><title>app/auth/callback/route.ts:4</title><polygon points="930,1047 1114,1047 1098,1103 914,1103" fill="#E7F5EA" stroke="#2E7D32" stroke-width="2"/><text x="1014" y="1071" font-size="12" font-weight="600" fill="#14532D" text-anchor="middle">GET /auth/callback</text><text x="1014" y="1087" font-size="10.5" font-weight="400" fill="#52525B" text-anchor="middle">/auth/callback</text></g>
<g><title>app/auth/callback/route.ts:10</title><path d="M 1258 1166 a 98.5 9 0 0 0 197 0 l 0 52 a 98.5 9 0 0 1 -197 0 z" fill="#E7F5EA" stroke="#2E7D32" stroke-width="2"/><path d="M 1258 1166 a 98.5 9 0 0 0 197 0" fill="none" stroke="#2E7D32" stroke-width="2"/><text x="1356.5" y="1196" font-size="12" font-weight="600" fill="#14532D" text-anchor="middle">Supabase session exchange</text></g>
<g><title>app/login/page.tsx:104</title><rect x="341" y="940" width="170" height="50" rx="20" fill="#FDEAEA" stroke="#C62828" stroke-width="2" stroke-dasharray="7 4"/><text x="426" y="969" font-size="12" font-weight="600" fill="#7F1D1D" text-anchor="middle">Sign-in error shown</text></g>
<g><title>app/auth/callback/route.ts:17</title><rect x="560" y="1281" width="218" height="136" rx="20" fill="#FDEAEA" stroke="#C62828" stroke-width="2" stroke-dasharray="7 4"/><text x="669" y="1305" font-size="12" font-weight="600" fill="#7F1D1D" text-anchor="middle">/login?error=auth</text><text x="669" y="1321" font-size="10.5" font-weight="400" fill="#52525B" text-anchor="middle">/login?error=auth</text><text x="669" y="1337" font-size="10.5" font-weight="400" fill="#52525B" text-anchor="middle">The callback error query is</text><text x="669" y="1353" font-size="10.5" font-weight="400" fill="#52525B" text-anchor="middle">never read by the login UI;</text><text x="669" y="1369" font-size="10.5" font-weight="400" fill="#52525B" text-anchor="middle">the only visible error comes</text><text x="669" y="1385" font-size="10.5" font-weight="400" fill="#52525B" text-anchor="middle">from client-side auth calls.</text><text x="669" y="1401" font-size="10.5" font-weight="400" fill="#B91C1C" text-anchor="middle">! no error state</text></g>
<g><title>app/(app)/page.tsx:1</title><rect x="324" y="1319" width="190" height="60" rx="8" fill="#E7F5EA" stroke="#2E7D32" stroke-width="2"/><text x="419" y="1345" font-size="12" font-weight="600" fill="#14532D" text-anchor="middle">Home</text><text x="419" y="1361" font-size="10.5" font-weight="400" fill="#52525B" text-anchor="middle">/</text></g>
<g><title>app/(app)/layout.tsx:17</title><ellipse cx="168" cy="1496" rx="70" ry="25" fill="#E7F5EA" stroke="#2E7D32" stroke-width="2"/><text x="168" y="1500" font-size="12" font-weight="600" fill="#14532D" text-anchor="middle">App is usable</text></g>
</svg>
