<svg xmlns="http://www.w3.org/2000/svg" width="1128" height="1335" viewBox="0 0 1128 1335" font-family="-apple-system,BlinkMacSystemFont,Segoe UI,Roboto,Helvetica,Arial,sans-serif">
<rect width="100%" height="100%" fill="#FFFFFF"/>
<defs>
<marker id="arrow-happy" viewBox="0 0 10 10" refX="9" refY="5" markerWidth="7" markerHeight="7" orient="auto-start-reverse"><path d="M 0 0 L 10 5 L 0 10 z" fill="#2E7D32"/></marker>
<marker id="arrow-error" viewBox="0 0 10 10" refX="9" refY="5" markerWidth="7" markerHeight="7" orient="auto-start-reverse"><path d="M 0 0 L 10 5 L 0 10 z" fill="#C62828"/></marker>
<marker id="arrow-edge" viewBox="0 0 10 10" refX="9" refY="5" markerWidth="7" markerHeight="7" orient="auto-start-reverse"><path d="M 0 0 L 10 5 L 0 10 z" fill="#B8860B"/></marker>
<marker id="arrow-neutral" viewBox="0 0 10 10" refX="9" refY="5" markerWidth="7" markerHeight="7" orient="auto-start-reverse"><path d="M 0 0 L 10 5 L 0 10 z" fill="#71717A"/></marker>
<marker id="arrow-added" viewBox="0 0 10 10" refX="9" refY="5" markerWidth="7" markerHeight="7" orient="auto-start-reverse"><path d="M 0 0 L 10 5 L 0 10 z" fill="#15803D"/></marker>
<marker id="arrow-removed" viewBox="0 0 10 10" refX="9" refY="5" markerWidth="7" markerHeight="7" orient="auto-start-reverse"><path d="M 0 0 L 10 5 L 0 10 z" fill="#B91C1C"/></marker>
<marker id="arrow-changed" viewBox="0 0 10 10" refX="9" refY="5" markerWidth="7" markerHeight="7" orient="auto-start-reverse"><path d="M 0 0 L 10 5 L 0 10 z" fill="#B45309"/></marker>
<marker id="arrow-unchanged" viewBox="0 0 10 10" refX="9" refY="5" markerWidth="7" markerHeight="7" orient="auto-start-reverse"><path d="M 0 0 L 10 5 L 0 10 z" fill="#A1A1AA"/></marker>
<marker id="arrow-back" viewBox="0 0 10 10" refX="9" refY="5" markerWidth="7" markerHeight="7" orient="auto-start-reverse"><path d="M 0 0 L 10 5 L 0 10 z" fill="#71717A"/></marker>
</defs>
<text x="20" y="30" font-size="18" font-weight="700" fill="#18181B">Guest checkout (proposed)</text>
<rect x="40" y="74" width="256" height="1195" fill="#F8FAFC" stroke="#CBD5E1" rx="4"/>
<text x="52" y="96" font-size="13" font-weight="600" fill="#334155">User</text>
<rect x="296" y="74" width="496" height="1195" fill="#F1F5F9" stroke="#CBD5E1" rx="4"/>
<text x="308" y="96" font-size="13" font-weight="600" fill="#334155">App UI</text>
<rect x="792" y="74" width="256" height="1195" fill="#F8FAFC" stroke="#CBD5E1" rx="4"/>
<text x="804" y="96" font-size="13" font-weight="600" fill="#334155">Backend</text>
<path d="M 168.5 158 V 189 H 544 V 220" fill="none" stroke="#2E7D32" stroke-width="2" marker-end="url(#arrow-happy)"/>
<path d="M 544 280 L 544 342" fill="none" stroke="#2E7D32" stroke-width="2" marker-end="url(#arrow-happy)"/><rect x="520" y="300" width="48" height="15" fill="#FFFFFF" opacity="0.9" rx="2"/><text x="544" y="311" font-size="10.5" fill="#3F3F46" text-anchor="middle">Checkout</text>
<path d="M 544 402 V 433 H 920 V 464" fill="none" stroke="#2E7D32" stroke-width="2" marker-end="url(#arrow-happy)"/><rect x="708" y="435" width="48" height="15" fill="#FFFFFF" opacity="0.9" rx="2"/><text x="732" y="446" font-size="10.5" fill="#3F3F46" text-anchor="middle">Continue</text>
<path d="M 920 519 V 606 H 544 V 693" fill="none" stroke="#2E7D32" stroke-width="2" marker-end="url(#arrow-happy)"/><rect x="723" y="582" width="18" height="15" fill="#FFFFFF" opacity="0.9" rx="2"/><text x="732" y="593" font-size="10.5" fill="#3F3F46" text-anchor="middle">200</text>
<path d="M 920 519 V 550 H 544 V 581" fill="none" stroke="#C62828" stroke-width="1.5" stroke-dasharray="6 4" marker-end="url(#arrow-error)"/><rect x="693" y="539" width="78" height="15" fill="#FFFFFF" opacity="0.9" rx="2"/><text x="732" y="550" font-size="10.5" fill="#3F3F46" text-anchor="middle">5xx / timeout</text>
<path d="M 629 606 H 1060 V 491.5 H 1020" fill="none" stroke="#C62828" stroke-width="1.5" stroke-dasharray="6 4" marker-end="url(#arrow-error)"/><rect x="1045" y="550.75" width="30" height="15" fill="#FFFFFF" opacity="0.9" rx="2"/><text x="1060" y="561.75" font-size="10.5" fill="#3F3F46" text-anchor="middle">Retry</text>
<path d="M 544 631 L 544 693" fill="none" stroke="#B8860B" stroke-width="1.5" stroke-dasharray="6 4" marker-end="url(#arrow-edge)"/><rect x="517" y="638" width="54" height="15" fill="#FFFFFF" opacity="0.9" rx="2"/><text x="544" y="649" font-size="10.5" fill="#3F3F46" text-anchor="middle">flat rate</text>
<path d="M 544 753 V 784 H 920 V 815" fill="none" stroke="#2E7D32" stroke-width="2" marker-end="url(#arrow-happy)"/><rect x="723" y="773" width="18" height="15" fill="#FFFFFF" opacity="0.9" rx="2"/><text x="732" y="784" font-size="10.5" fill="#3F3F46" text-anchor="middle">Pay</text>
<path d="M 639 723 H 679 V 372 H 639" fill="none" stroke="#71717A" stroke-width="1.5" stroke-dasharray="6 4" marker-end="url(#arrow-back)"/><rect x="667" y="549.5" width="24" height="15" fill="#FFFFFF" opacity="0.9" rx="2"/><text x="679" y="560.5" font-size="10.5" fill="#3F3F46" text-anchor="middle">back</text>
<path d="M 920 875 L 920 940" fill="none" stroke="#2E7D32" stroke-width="2" marker-end="url(#arrow-happy)"/><rect x="890" y="883.5" width="60" height="15" fill="#FFFFFF" opacity="0.9" rx="2"/><text x="920" y="894.5" font-size="10.5" fill="#3F3F46" text-anchor="middle">authorised</text>
<path d="M 920 875 V 906 H 544 V 937" fill="none" stroke="#C62828" stroke-width="1.5" stroke-dasharray="6 4" marker-end="url(#arrow-error)"/><rect x="708" y="895" width="48" height="15" fill="#FFFFFF" opacity="0.9" rx="2"/><text x="732" y="906" font-size="10.5" fill="#3F3F46" text-anchor="middle">rejected</text>
<path d="M 639 967 H 679 V 723 H 639" fill="none" stroke="#C62828" stroke-width="1.5" stroke-dasharray="6 4" marker-end="url(#arrow-error)"/><rect x="631" y="847" width="96" height="15" fill="#FFFFFF" opacity="0.9" rx="2"/><text x="679" y="858" font-size="10.5" fill="#3F3F46" text-anchor="middle">Try another card</text>
<path d="M 920 995 L 920 1059" fill="none" stroke="#52525B" stroke-width="1.5" marker-end="url(#arrow-neutral)"/><rect x="902" y="1003" width="36" height="15" fill="#FFFFFF" opacity="0.9" rx="2"/><text x="920" y="1014" font-size="10.5" fill="#3F3F46" text-anchor="middle">insert</text>
<path d="M 920 995 V 1029.5 H 419 V 1064" fill="none" stroke="#2E7D32" stroke-width="2" marker-end="url(#arrow-happy)"/><rect x="660.5" y="1018.5" width="18" height="15" fill="#FFFFFF" opacity="0.9" rx="2"/><text x="669.5" y="1029.5" font-size="10.5" fill="#3F3F46" text-anchor="middle">201</text>
<path d="M 920 995 V 1032 H 662 V 1069" fill="none" stroke="#C62828" stroke-width="1.5" stroke-dasharray="6 4" marker-end="url(#arrow-error)"/><rect x="782" y="1034" width="18" height="15" fill="#FFFFFF" opacity="0.9" rx="2"/><text x="791" y="1045" font-size="10.5" fill="#3F3F46" text-anchor="middle">5xx</text>
<path d="M 764 1094 H 1060 V 967.5 H 1020" fill="none" stroke="#C62828" stroke-width="1.5" stroke-dasharray="6 4" marker-end="url(#arrow-error)"/><rect x="1045" y="1006.75" width="30" height="15" fill="#FFFFFF" opacity="0.9" rx="2"/><text x="1060" y="1017.75" font-size="10.5" fill="#3F3F46" text-anchor="middle">Retry</text>
<path d="M 419 1124 V 1157.5 H 168 V 1191" fill="none" stroke="#2E7D32" stroke-width="2" marker-end="url(#arrow-happy)"/>
<g><title>start</title><ellipse cx="168.5" cy="133" rx="84.5" ry="25" fill="#E7F5EA" stroke="#2E7D32" stroke-width="2"/><text x="168.5" y="137" font-size="12" font-weight="600" fill="#14532D" text-anchor="middle">Taps Checkout in cart</text></g>
<g><title>/cart</title><rect x="449" y="220" width="190" height="60" rx="8" fill="#E7F5EA" stroke="#2E7D32" stroke-width="2"/><text x="544" y="254" font-size="12" font-weight="600" fill="#14532D" text-anchor="middle">Cart</text></g>
<g><title>/checkout/address</title><rect x="449" y="342" width="190" height="60" rx="8" fill="#E7F5EA" stroke="#2E7D32" stroke-width="2"/><text x="544" y="376" font-size="12" font-weight="600" fill="#14532D" text-anchor="middle">Contact + shipping</text></g>
<g><title>shipping-api</title><polygon points="836,464 1020,464 1004,519 820,519" fill="#E7F5EA" stroke="#2E7D32" stroke-width="2"/><text x="920" y="495.5" font-size="12" font-weight="600" fill="#14532D" text-anchor="middle">POST /api/shipping/quote</text></g>
<g><title>shipping-error</title><rect x="459" y="581" width="170" height="50" rx="20" fill="#FDEAEA" stroke="#C62828" stroke-width="2" stroke-dasharray="7 4"/><text x="544" y="610" font-size="12" font-weight="600" fill="#7F1D1D" text-anchor="middle">Quote unavailable</text></g>
<g><title>/checkout/payment</title><rect x="449" y="693" width="190" height="60" rx="8" fill="#E7F5EA" stroke="#2E7D32" stroke-width="2"/><text x="544" y="727" font-size="12" font-weight="600" fill="#14532D" text-anchor="middle">Payment</text></g>
<g><title>psp</title><polygon points="832,815 1008,815 1008,861 920,875 832,861" fill="#E7F5EA" stroke="#2E7D32" stroke-width="2"/><text x="920" y="849" font-size="12" font-weight="600" fill="#14532D" text-anchor="middle">3-D Secure (bank page)</text></g>
<g><title>charge</title><polygon points="836,940 1020,940 1004,995 820,995" fill="#E7F5EA" stroke="#2E7D32" stroke-width="2"/><text x="920" y="971.5" font-size="12" font-weight="600" fill="#14532D" text-anchor="middle">POST /api/orders</text></g>
<g><title>charge-error</title><rect x="560" y="1069" width="204" height="50" rx="20" fill="#FDEAEA" stroke="#C62828" stroke-width="2" stroke-dasharray="7 4"/><text x="662" y="1098" font-size="12" font-weight="600" fill="#7F1D1D" text-anchor="middle">Order could not be created</text></g>
<g><title>orders-db</title><path d="M 835 1068 a 85 9 0 0 0 170 0 l 0 52 a 85 9 0 0 1 -170 0 z" fill="#F4F4F5" stroke="#71717A" stroke-width="2"/><path d="M 835 1068 a 85 9 0 0 0 170 0" fill="none" stroke="#71717A" stroke-width="2"/><text x="920" y="1098" font-size="12" font-weight="600" fill="#27272A" text-anchor="middle">orders table</text></g>
<g><title>/checkout/declined</title><rect x="449" y="937" width="190" height="60" rx="8" fill="#FDEAEA" stroke="#C62828" stroke-width="2"/><text x="544" y="971" font-size="12" font-weight="600" fill="#7F1D1D" text-anchor="middle">Payment declined</text></g>
<g><title>/checkout/success</title><rect x="324" y="1064" width="190" height="60" rx="8" fill="#E7F5EA" stroke="#2E7D32" stroke-width="2"/><text x="419" y="1098" font-size="12" font-weight="600" fill="#14532D" text-anchor="middle">Order confirmed</text></g>
<g><title>done</title><ellipse cx="168" cy="1216" rx="70" ry="25" fill="#E7F5EA" stroke="#2E7D32" stroke-width="2"/><text x="168" y="1220" font-size="12" font-weight="600" fill="#14532D" text-anchor="middle">Order placed</text></g>
</svg>
