<svg xmlns="http://www.w3.org/2000/svg" width="1094" height="1497" viewBox="0 0 1094 1497" font-family="-apple-system,BlinkMacSystemFont,Segoe UI,Roboto,Helvetica,Arial,sans-serif">
<rect width="100%" height="100%" fill="#FFFFFF"/>
<defs>
<marker id="arrow-happy" viewBox="0 0 10 10" refX="9" refY="5" markerWidth="7" markerHeight="7" orient="auto-start-reverse"><path d="M 0 0 L 10 5 L 0 10 z" fill="#2E7D32"/></marker>
<marker id="arrow-error" viewBox="0 0 10 10" refX="9" refY="5" markerWidth="7" markerHeight="7" orient="auto-start-reverse"><path d="M 0 0 L 10 5 L 0 10 z" fill="#C62828"/></marker>
<marker id="arrow-edge" viewBox="0 0 10 10" refX="9" refY="5" markerWidth="7" markerHeight="7" orient="auto-start-reverse"><path d="M 0 0 L 10 5 L 0 10 z" fill="#B8860B"/></marker>
<marker id="arrow-neutral" viewBox="0 0 10 10" refX="9" refY="5" markerWidth="7" markerHeight="7" orient="auto-start-reverse"><path d="M 0 0 L 10 5 L 0 10 z" fill="#71717A"/></marker>
<marker id="arrow-added" viewBox="0 0 10 10" refX="9" refY="5" markerWidth="7" markerHeight="7" orient="auto-start-reverse"><path d="M 0 0 L 10 5 L 0 10 z" fill="#15803D"/></marker>
<marker id="arrow-removed" viewBox="0 0 10 10" refX="9" refY="5" markerWidth="7" markerHeight="7" orient="auto-start-reverse"><path d="M 0 0 L 10 5 L 0 10 z" fill="#B91C1C"/></marker>
<marker id="arrow-changed" viewBox="0 0 10 10" refX="9" refY="5" markerWidth="7" markerHeight="7" orient="auto-start-reverse"><path d="M 0 0 L 10 5 L 0 10 z" fill="#B45309"/></marker>
<marker id="arrow-unchanged" viewBox="0 0 10 10" refX="9" refY="5" markerWidth="7" markerHeight="7" orient="auto-start-reverse"><path d="M 0 0 L 10 5 L 0 10 z" fill="#A1A1AA"/></marker>
<marker id="arrow-back" viewBox="0 0 10 10" refX="9" refY="5" markerWidth="7" markerHeight="7" orient="auto-start-reverse"><path d="M 0 0 L 10 5 L 0 10 z" fill="#71717A"/></marker>
</defs>
<text x="20" y="30" font-size="18" font-weight="700" fill="#18181B">Guest checkout</text>
<rect x="40" y="74" width="256" height="1357" fill="#F8FAFC" stroke="#CBD5E1" rx="4"/>
<text x="52" y="96" font-size="13" font-weight="600" fill="#334155">User</text>
<rect x="296" y="74" width="462" height="1357" fill="#F1F5F9" stroke="#CBD5E1" rx="4"/>
<text x="308" y="96" font-size="13" font-weight="600" fill="#334155">App UI</text>
<rect x="758" y="74" width="256" height="1357" fill="#F8FAFC" stroke="#CBD5E1" rx="4"/>
<text x="770" y="96" font-size="13" font-weight="600" fill="#334155">Backend</text>
<path d="M 168.5 158 V 189 H 527 V 220" fill="none" stroke="#2E7D32" stroke-width="2" marker-end="url(#arrow-happy)"/>
<path d="M 527 280 L 527 342" fill="none" stroke="#2E7D32" stroke-width="2" marker-end="url(#arrow-happy)"/><rect x="503" y="300" width="48" height="15" fill="#FFFFFF" opacity="0.9" rx="2"/><text x="527" y="311" font-size="10.5" fill="#3F3F46" text-anchor="middle">Checkout</text>
<path d="M 527 432 L 527 616" fill="none" stroke="#2E7D32" stroke-width="2" marker-end="url(#arrow-happy)"/><rect x="518" y="526" width="18" height="15" fill="#FFFFFF" opacity="0.9" rx="2"/><text x="527" y="537" font-size="10.5" fill="#3F3F46" text-anchor="middle">yes</text>
<path d="M 527 432 L 527 494" fill="none" stroke="#B8860B" stroke-width="1.5" stroke-dasharray="6 4" marker-end="url(#arrow-edge)"/><rect x="521" y="439" width="12" height="15" fill="#FFFFFF" opacity="0.9" rx="2"/><text x="527" y="450" font-size="10.5" fill="#3F3F46" text-anchor="middle">no</text>
<path d="M 527 554 L 527 616" fill="none" stroke="#B8860B" stroke-width="1.5" stroke-dasharray="6 4" marker-end="url(#arrow-edge)"/><rect x="482" y="574" width="90" height="15" fill="#FFFFFF" opacity="0.9" rx="2"/><text x="527" y="585" font-size="10.5" fill="#3F3F46" text-anchor="middle">account created</text>
<path d="M 527 676 V 707 H 886 V 738" fill="none" stroke="#2E7D32" stroke-width="2" marker-end="url(#arrow-happy)"/><rect x="682.5" y="709" width="48" height="15" fill="#FFFFFF" opacity="0.9" rx="2"/><text x="706.5" y="720" font-size="10.5" fill="#3F3F46" text-anchor="middle">Continue</text>
<path d="M 886 793 V 824 H 419 V 855" fill="none" stroke="#2E7D32" stroke-width="2" marker-end="url(#arrow-happy)"/><rect x="643.5" y="800" width="18" height="15" fill="#FFFFFF" opacity="0.9" rx="2"/><text x="652.5" y="811" font-size="10.5" fill="#3F3F46" text-anchor="middle">200</text>
<path d="M 886 793 V 826.5 H 645 V 860" fill="none" stroke="#C62828" stroke-width="1.5" stroke-dasharray="6 4" marker-end="url(#arrow-error)"/><rect x="726.5" y="815.5" width="78" height="15" fill="#FFFFFF" opacity="0.9" rx="2"/><text x="765.5" y="826.5" font-size="10.5" fill="#3F3F46" text-anchor="middle">5xx / timeout</text>
<path d="M 419 915 V 946 H 527 V 977" fill="none" stroke="#B8860B" stroke-width="1.5" stroke-dasharray="6 4" marker-end="url(#arrow-edge)"/><rect x="449" y="948" width="48" height="15" fill="#FFFFFF" opacity="0.9" rx="2"/><text x="473" y="959" font-size="10.5" fill="#3F3F46" text-anchor="middle">after 4s</text>
<path d="M 622 1007 H 662 V 885 H 514" fill="none" stroke="#71717A" stroke-width="1.5" stroke-dasharray="6 4" marker-end="url(#arrow-back)"/><rect x="641" y="922" width="42" height="15" fill="#FFFFFF" opacity="0.9" rx="2"/><text x="662" y="933" font-size="10.5" fill="#3F3F46" text-anchor="middle">dismiss</text>
<path d="M 419 915 V 946 H 886 V 977" fill="none" stroke="#2E7D32" stroke-width="2" marker-end="url(#arrow-happy)"/><rect x="643.5" y="935" width="18" height="15" fill="#FFFFFF" opacity="0.9" rx="2"/><text x="652.5" y="946" font-size="10.5" fill="#3F3F46" text-anchor="middle">Pay</text>
<path d="M 886 1037 L 886 1102" fill="none" stroke="#2E7D32" stroke-width="2" marker-end="url(#arrow-happy)"/><rect x="856" y="1071.5" width="60" height="15" fill="#FFFFFF" opacity="0.9" rx="2"/><text x="886" y="1082.5" font-size="10.5" fill="#3F3F46" text-anchor="middle">authorised</text>
<path d="M 886 1037 V 1068 H 527 V 1099" fill="none" stroke="#C62828" stroke-width="1.5" stroke-dasharray="6 4" marker-end="url(#arrow-error)"/><rect x="682.5" y="1044" width="48" height="15" fill="#FFFFFF" opacity="0.9" rx="2"/><text x="706.5" y="1055" font-size="10.5" fill="#3F3F46" text-anchor="middle">rejected</text>
<path d="M 886 1157 L 886 1221" fill="none" stroke="#52525B" stroke-width="1.5" marker-end="url(#arrow-neutral)"/><rect x="868" y="1178" width="36" height="15" fill="#FFFFFF" opacity="0.9" rx="2"/><text x="886" y="1189" font-size="10.5" fill="#3F3F46" text-anchor="middle">insert</text>
<path d="M 886 1157 V 1191.5 H 527 V 1226" fill="none" stroke="#2E7D32" stroke-width="2" marker-end="url(#arrow-happy)"/><rect x="697.5" y="1193.5" width="18" height="15" fill="#FFFFFF" opacity="0.9" rx="2"/><text x="706.5" y="1204.5" font-size="10.5" fill="#3F3F46" text-anchor="middle">201</text>
<path d="M 527 1286 V 1319.5 H 168 V 1353" fill="none" stroke="#2E7D32" stroke-width="2" marker-end="url(#arrow-happy)"/>
<path d="M 514 885 H 662 V 646 H 622" fill="none" stroke="#71717A" stroke-width="1.5" stroke-dasharray="6 4" marker-end="url(#arrow-back)"/><rect x="650" y="754.5" width="24" height="15" fill="#FFFFFF" opacity="0.9" rx="2"/><text x="662" y="765.5" font-size="10.5" fill="#3F3F46" text-anchor="middle">back</text>
<g><title>start</title><ellipse cx="168.5" cy="133" rx="84.5" ry="25" fill="#E7F5EA" stroke="#2E7D32" stroke-width="2"/><text x="168.5" y="137" font-size="12" font-weight="600" fill="#14532D" text-anchor="middle">Taps Checkout in cart</text></g>
<g><title>src/app/cart/page.tsx:18</title><rect x="432" y="220" width="190" height="60" rx="8" fill="#E7F5EA" stroke="#2E7D32" stroke-width="2"/><text x="527" y="254" font-size="12" font-weight="600" fill="#14532D" text-anchor="middle">Cart</text></g>
<g><title>src/middleware.ts:42</title><polygon points="527,342 627,387 527,432 427,387" fill="#E7F5EA" stroke="#2E7D32" stroke-width="2"/><text x="527" y="391" font-size="12" font-weight="600" fill="#14532D" text-anchor="middle">Signed in?</text></g>
<g><title>src/app/signup/page.tsx:12</title><rect x="432" y="494" width="190" height="60" rx="8" fill="#FFF6E0" stroke="#B8860B" stroke-width="2"/><text x="527" y="528" font-size="12" font-weight="600" fill="#78350F" text-anchor="middle">Create an account</text></g>
<g><title>src/app/checkout/address/page.tsx:30</title><rect x="432" y="616" width="190" height="60" rx="8" fill="#E7F5EA" stroke="#2E7D32" stroke-width="2"/><text x="527" y="650" font-size="12" font-weight="600" fill="#14532D" text-anchor="middle">Shipping address</text></g>
<g><title>src/app/api/shipping/quote/route.ts:8</title><polygon points="802,738 986,738 970,793 786,793" fill="#E7F5EA" stroke="#2E7D32" stroke-width="2"/><text x="886" y="769.5" font-size="12" font-weight="600" fill="#14532D" text-anchor="middle">POST /api/shipping/quote</text></g>
<g><title>src/app/checkout/address/page.tsx:88</title><rect x="560" y="860" width="170" height="50" rx="20" fill="#FCE4EC" stroke="#AD1457" stroke-width="3" stroke-dasharray="7 4"/><text x="645" y="889" font-size="12" font-weight="600" fill="#831843" text-anchor="middle">Quote failed</text></g>
<g><title>src/app/checkout/payment/page.tsx:24</title><rect x="324" y="855" width="190" height="60" rx="8" fill="#E7F5EA" stroke="#2E7D32" stroke-width="2"/><text x="419" y="889" font-size="12" font-weight="600" fill="#14532D" text-anchor="middle">Payment</text></g>
<g><title>src/lib/psp/redirect.ts:15</title><polygon points="798,977 974,977 974,1023 886,1037 798,1023" fill="#E7F5EA" stroke="#2E7D32" stroke-width="2"/><text x="886" y="1011" font-size="12" font-weight="600" fill="#14532D" text-anchor="middle">3-D Secure (bank page)</text></g>
<g><title>src/app/api/orders/route.ts:11</title><polygon points="802,1102 986,1102 970,1157 786,1157" fill="#E7F5EA" stroke="#2E7D32" stroke-width="2"/><text x="886" y="1133.5" font-size="12" font-weight="600" fill="#14532D" text-anchor="middle">POST /api/orders</text></g>
<g><title>prisma/schema.prisma:60</title><path d="M 801 1230 a 85 9 0 0 0 170 0 l 0 52 a 85 9 0 0 1 -170 0 z" fill="#F4F4F5" stroke="#71717A" stroke-width="2"/><path d="M 801 1230 a 85 9 0 0 0 170 0" fill="none" stroke="#71717A" stroke-width="2"/><text x="886" y="1260" font-size="12" font-weight="600" fill="#27272A" text-anchor="middle">orders table</text></g>
<g><title>src/app/checkout/declined/page.tsx:9</title><rect x="432" y="1099" width="190" height="60" rx="8" fill="#FCE4EC" stroke="#AD1457" stroke-width="3"/><text x="527" y="1133" font-size="12" font-weight="600" fill="#831843" text-anchor="middle">Payment declined</text></g>
<g><title>src/app/checkout/success/page.tsx:14</title><rect x="432" y="1226" width="190" height="60" rx="8" fill="#E7F5EA" stroke="#2E7D32" stroke-width="2"/><text x="527" y="1260" font-size="12" font-weight="600" fill="#14532D" text-anchor="middle">Order confirmed</text></g>
<g><title>done</title><ellipse cx="168" cy="1378" rx="70" ry="25" fill="#E7F5EA" stroke="#2E7D32" stroke-width="2"/><text x="168" y="1382" font-size="12" font-weight="600" fill="#14532D" text-anchor="middle">Order placed</text></g>
<g><title>src/components/PromoModal.tsx:20</title><rect x="432" y="977" width="190" height="60" rx="8" fill="#FFF6E0" stroke="#B8860B" stroke-width="2" stroke-dasharray="7 4"/><text x="527" y="1011" font-size="12" font-weight="600" fill="#78350F" text-anchor="middle">Newsletter offer</text></g>
</svg>
